<svg width="98" height="98" viewBox="0 0 98 98" fill="none" xmlns="http://www.w3.org/2000/svg">
<defs>
<filter id="filter0_d" x="0" y="0" width="98" height="98" filterUnits="userSpaceOnUse" color-interpolation-filters="sRGB">
<feFlood flood-opacity="0" result="BackgroundImageFix"/>
<feColorMatrix in="SourceAlpha" type="matrix" values="0 0 0 0 0 0 0 0 0 0 0 0 0 0 0 0 0 0 127 0" result="hardAlpha"/>
<feOffset dy="4"/>
<feGaussianBlur stdDeviation="2"/>
<feColorMatrix type="matrix" values="0 0 0 0 0 0 0 0 0 0 0 0 0 0 0 0 0 0 0.25 0"/>
<feBlend mode="normal" in2="BackgroundImageFix" result="effect1_dropShadow"/>
<feBlend mode="normal" in="SourceGraphic" in2="effect1_dropShadow" result="shape"/>
</filter>
<radialGradient id="paint0_radial" cx="0" cy="0" r="1" gradientUnits="userSpaceOnUse" gradientTransform="translate(49 45) rotate(90) scale(45)">
<stop stop-color="#F2A000"/>
<stop offset="1" stop-color="#FD8440"/>
</radialGradient>
</defs>
<g filter="url(#filter0_d)">
<rect x="4" width="90" height="90" rx="45" fill="url(#paint0_radial)"/>
</g>
<path d="M48.5 83C41.7129 83 35.4385 81.3276 29.6768 77.9829C23.915 74.6382 19.3618 70.085 16.0171 64.3232C12.6724 58.5615 11 52.2871 11 45.5C11 38.7129 12.6724 32.4385 16.0171 26.6768C19.3618 20.915 23.915 16.3618 29.6768 13.0171C35.4385 9.67236 41.7129 8 48.5 8C55.2871 8 61.5615 9.67236 67.3232 13.0171C73.085 16.3618 77.6382 20.915 80.9829 26.6768C84.3276 32.4385 86 38.7129 86 45.5C86 52.2871 84.3276 58.5615 80.9829 64.3232C77.6382 70.085 73.085 74.6382 67.3232 77.9829C61.5615 81.3276 55.2871 83 48.5 83ZM48.5 12.6875C44.0566 12.6875 39.8086 13.5542 35.7559 15.2876C31.7031 17.021 28.2119 19.3525 25.2822 22.2822C22.3525 25.2119 20.021 28.7031 18.2876 32.7559C16.5542 36.8086 15.6875 41.0566 15.6875 45.5C15.6875 49.9434 16.5542 54.1914 18.2876 58.2441C20.021 62.2969 22.3525 65.7881 25.2822 68.7178C28.2119 71.6475 31.7031 73.979 35.7559 75.7124C39.8086 77.4458 44.0566 78.3125 48.5 78.3125C52.9434 78.3125 57.1914 77.4458 61.2441 75.7124C65.2969 73.979 68.7881 71.6475 71.7178 68.7178C74.6475 65.7881 76.979 62.2969 78.7124 58.2441C80.4458 54.1914 81.3125 49.9434 81.3125 45.5C81.3125 41.0566 80.4458 36.8086 78.7124 32.7559C76.979 28.7031 74.6475 25.2119 71.7178 22.2822C68.7881 19.3525 65.2969 17.021 61.2441 15.2876C57.1914 13.5542 52.9434 12.6875 48.5 12.6875ZM75.5996 52.8975L67.9824 50.9932L54.6523 45.5L68.3486 39.8604L75.5996 38.0293C76.2832 40.5195 76.625 43.0098 76.625 45.5C76.625 47.9414 76.2832 50.4072 75.5996 52.8975ZM52.8213 41.1787L58.5342 27.4824L62.416 21.0371C66.8594 23.5762 70.3506 27.0918 72.8896 31.584L66.2246 35.6123L52.8213 41.1787ZM48.5 39.3477L42.8604 25.7246L41.1025 18.4004C43.5928 17.7168 46.0586 17.375 48.5 17.375C50.9414 17.375 53.4072 17.7168 55.8975 18.4004L54.0664 26.0176L48.5 39.3477ZM30.8486 35.6123L24.1104 31.584C26.6494 27.0918 30.1406 23.5762 34.584 21.0371L38.5391 27.4824L44.1787 41.1787L30.8486 35.6123ZM42.4209 45.5L29.0176 50.9932L21.4004 52.8975C20.7168 50.4072 20.375 47.9414 20.375 45.5C20.375 43.0586 20.7168 40.5684 21.4004 38.0293L28.7246 39.8604L42.4209 45.5ZM44.1787 49.8213L38.6855 63.1514L34.584 69.8896C30.1406 67.3506 26.6494 63.8594 24.1104 59.416L30.4824 55.4609L44.1787 49.8213ZM48.5 51.6523L54.0664 64.9824L55.8975 72.5996C53.4072 73.2832 50.9414 73.625 48.5 73.625C46.0586 73.625 43.5928 73.2832 41.1025 72.5996L42.8604 65.2754L48.5 51.6523ZM66.5176 55.4609L72.9629 59.416C70.4238 63.8594 66.9326 67.3506 62.4893 69.8896L58.3877 63.1514L52.8213 49.8213L66.5176 55.4609Z" fill="black"/>
</svg>
