<svg width="729" height="703" viewBox="0 0 729 703" fill="none" xmlns="http://www.w3.org/2000/svg">
<defs>
<linearGradient id="paint0_linear" x1="364.325" y1="0.331879" x2="364.325" y2="702.659" gradientUnits="userSpaceOnUse">
<stop stop-color="#FF5C00"/>
<stop offset="1" stop-color="#FFAF55"/>
</linearGradient>
<linearGradient id="paint1_linear" x1="190.338" y1="171.213" x2="190.338" y2="339.045" gradientUnits="userSpaceOnUse">
<stop stop-color="#FF5C00"/>
<stop offset="1" stop-color="#FFAF55"/>
</linearGradient>
<linearGradient id="paint2_linear" x1="464.764" y1="72.1993" x2="464.764" y2="295.861" gradientUnits="userSpaceOnUse">
<stop stop-color="#FF5C00"/>
<stop offset="1" stop-color="#FFAF55"/>
</linearGradient>
<linearGradient id="paint3_linear" x1="263.612" y1="72.4668" x2="263.612" y2="295.586" gradientUnits="userSpaceOnUse">
<stop stop-color="#FF5C00"/>
<stop offset="1" stop-color="#FFAF55"/>
</linearGradient>
<linearGradient id="paint4_linear" x1="190.57" y1="365.369" x2="190.57" y2="532.629" gradientUnits="userSpaceOnUse">
<stop stop-color="#FF5C00"/>
<stop offset="1" stop-color="#FFAF55"/>
</linearGradient>
<linearGradient id="paint5_linear" x1="537.748" y1="365.105" x2="537.748" y2="532.37" gradientUnits="userSpaceOnUse">
<stop stop-color="#FF5C00"/>
<stop offset="1" stop-color="#FFAF55"/>
</linearGradient>
<linearGradient id="paint6_linear" x1="538.208" y1="171.198" x2="538.208" y2="339.032" gradientUnits="userSpaceOnUse">
<stop stop-color="#FF5C00"/>
<stop offset="1" stop-color="#FFAF55"/>
</linearGradient>
<linearGradient id="paint7_linear" x1="464.431" y1="408.987" x2="464.431" y2="630.527" gradientUnits="userSpaceOnUse">
<stop stop-color="#FF5C00"/>
<stop offset="1" stop-color="#FFAF55"/>
</linearGradient>
<linearGradient id="paint8_linear" x1="264.138" y1="408.988" x2="264.138" y2="630.53" gradientUnits="userSpaceOnUse">
<stop stop-color="#FF5C00"/>
<stop offset="1" stop-color="#FFAF55"/>
</linearGradient>
<linearGradient id="paint9_linear" x1="364.325" y1="316.386" x2="364.325" y2="386.618" gradientUnits="userSpaceOnUse">
<stop stop-color="#FF5C00"/>
<stop offset="1" stop-color="#FFAF55"/>
</linearGradient>
</defs>
<path d="M364.324 0.331879C163.264 0.331879 0.269897 157.554 0.269897 351.495C0.269897 545.437 163.264 702.659 364.324 702.659C565.387 702.659 728.38 545.437 728.38 351.495C728.38 157.554 565.387 0.331879 364.324 0.331879ZM364.324 667.542C183.368 667.542 36.6753 526.043 36.6753 351.495C36.6753 176.947 183.368 35.4481 364.324 35.4481C545.28 35.4481 691.974 176.947 691.974 351.495C691.974 526.043 545.28 667.542 364.324 667.542Z" fill="url(#paint0_linear)"/>
<path d="M300.603 309.104L162.808 176.452C155.756 169.543 144.231 169.455 137.066 176.258C136.51 176.788 135.986 177.351 135.505 177.945C101.997 218.767 81.0001 267.818 74.8893 319.552C73.7836 329.19 80.9872 337.868 90.9788 338.936C91.6804 339.011 92.3858 339.047 93.0922 339.043H287.406C297.458 339.197 305.737 331.462 305.896 321.765C305.976 317.03 304.065 312.465 300.603 309.104Z" fill="url(#paint1_linear)"/>
<path d="M409.017 290.477L546.357 157.737C553.542 150.956 553.668 139.839 546.639 132.909C546.093 132.37 545.512 131.867 544.9 131.401C502.628 98.8391 451.734 78.3697 398.004 72.3174C388.018 71.2025 378.984 78.1064 377.829 87.7397C377.744 88.4481 377.702 89.1619 377.709 89.8757V277.747C377.392 287.439 385.28 295.544 395.328 295.852C400.472 296.009 405.446 294.056 409.017 290.477Z" fill="url(#paint2_linear)"/>
<path d="M350.673 278.015V90.1414C350.739 80.4448 342.645 72.5313 332.591 72.4673C331.852 72.462 331.114 72.5007 330.377 72.583C276.607 78.7374 225.711 99.3304 183.482 132.017C175.587 138.024 174.237 149.063 180.461 156.676C180.945 157.269 181.466 157.829 182.025 158.355L319.638 290.479C326.767 297.316 338.292 297.284 345.38 290.407C348.775 287.115 350.677 282.657 350.673 278.015Z" fill="url(#paint3_linear)"/>
<path d="M287.419 365.373H93.4691C83.4168 365.303 75.2081 373.106 75.1354 382.805C75.1298 383.551 75.1735 384.298 75.2664 385.038C81.7775 436.615 103.086 485.416 136.791 525.943C143.018 533.558 154.463 534.86 162.356 528.856C162.97 528.39 163.551 527.885 164.096 527.348L300.616 395.397C307.757 388.572 307.808 377.455 300.731 370.567C297.219 367.149 292.407 365.273 287.419 365.373Z" fill="url(#paint4_linear)"/>
<path d="M428.029 395.404L564.548 527.091C571.578 534.022 583.103 534.144 590.29 527.363C590.847 526.837 591.37 526.276 591.854 525.686C625.428 485.119 646.608 436.322 653.015 384.782C654.221 375.156 647.107 366.407 637.128 365.243C636.358 365.154 635.587 365.111 634.811 365.117H441.226C431.178 364.758 422.733 372.324 422.361 382.014C422.168 387.055 424.232 391.933 428.029 395.404Z" fill="url(#paint5_linear)"/>
<path d="M441.231 339.03H635.364C645.416 339.087 653.615 331.273 653.677 321.577C653.681 320.897 653.644 320.216 653.566 319.538C647.454 267.805 626.458 218.754 592.95 177.932C586.752 170.298 575.311 168.955 567.397 174.933C566.78 175.4 566.195 175.902 565.647 176.439L428.034 309.091C420.945 315.968 420.978 327.085 428.105 333.924C431.587 337.263 436.319 339.104 441.231 339.03Z" fill="url(#paint6_linear)"/>
<path d="M377.982 426.385V612.852C377.915 622.55 386.01 630.463 396.062 630.527C396.803 630.531 397.541 630.493 398.277 630.411C451.486 624.332 501.899 604.12 543.9 572.03C551.815 566.051 553.207 555.016 547.009 547.381C546.526 546.787 546.005 546.222 545.446 545.694L408.926 414.006C401.746 407.219 390.223 407.328 383.184 414.252C379.889 417.497 378.024 421.844 377.982 426.385Z" fill="url(#paint7_linear)"/>
<path d="M319.643 414.007L183.121 545.694C175.958 552.496 175.867 563.613 182.919 570.522C183.469 571.061 184.052 571.566 184.669 572.03C226.67 604.121 277.083 624.333 330.292 630.412C340.277 631.526 349.31 624.624 350.467 614.989C350.552 614.281 350.592 613.567 350.587 612.852V426.385C350.496 416.689 342.273 408.899 332.221 408.988C327.513 409.029 323.005 410.828 319.643 414.007Z" fill="url(#paint8_linear)"/>
<path d="M400.73 351.501C400.73 370.896 384.431 386.618 364.324 386.618C344.219 386.618 327.92 370.896 327.92 351.501C327.92 332.108 344.219 316.386 364.324 316.386C384.431 316.386 400.73 332.108 400.73 351.501Z" fill="url(#paint9_linear)"/>
</svg>
